[center][b][color='navy'][size='x-large']Eka Lagye ZooEL ft Porshi  720p . UpScaled AC 3 - Team TuT[/size][/color][/b][/center]

[center][IMG]http://i.imgur.com/9EWl3Di.jpg[/IMG][/center]

[center][tt][color='navy'][size='medium']AlBuM - PosShi 2
Artist- Porshi
M DiR- ZooEL
Direcrot - Chandan Cowdhory[/size][/color][/tt][/center]


[tt][color='gray']General
Complete name                    : 1. Eka Lagye . 720p . UpScaled - Tam [ TuT
Format                           : Matroska
File size                        : 117 MiB
Duration                         : 4mn 43s
Overall bit rate                 : 3 455 Kbps

Video
Format                           : AVC
Format/Info                      : Advanced Video Codec
Bit rate                         : 3 000 Kbps
Width                            : 1 280 pixels
Height                           : 528 pixels
Display aspect ratio             : 2.40:1
Frame rate                       : 25.000 fps
Stream size                      : 99.3 MiB (85%)

Audio
Format                           : AC-3
Format/Info                      : Audio Coding 3
Mode extension                   : CM (complete main)
Codec ID                         : A_AC3
Bit rate                         : 448 Kbps
Channel(s)                       : 6 channels
Channel positions                : Front: L C R, Side: L R, LFE
Stream size                      : 15.1 MiB (13%)
[/color][/tt]


[center][IMG]http://i.imgur.com/9EWl3Di.jpg[/IMG]
[IMG]http://i.imgur.com/DRIa50U.jpg[/IMG]
[IMG]http://i.imgur.com/nOo3Cct.jpg[/IMG]
[IMG]http://i.imgur.com/xHJKDnl.jpg[/IMG]
[IMG]http://i.imgur.com/3WnsvEv.jpg[/IMG]
[IMG]http://i.imgur.com/bwn4kPr.jpg[/IMG]
[IMG]http://i.imgur.com/e3s69iD.jpg[/IMG]
[IMG]http://i.imgur.com/MHIvbjq.jpg[/IMG]
[IMG]http://i.imgur.com/aRCAVMV.jpg[/IMG][/center]